<svg xmlns="http://www.w3.org/2000/svg" version="1.1" xmlns:xlink="http://www.w3.org/1999/xlink" xmlns:svgjs="http://svgjs.com/svgjs" width="256" height="256" x="0" y="0" viewBox="0 0 24 24" style="enable-background:new 0 0 512 512" xml:space="preserve"><g><path d="M7 6h16a1 1 0 0 0 0-2H7a1 1 0 0 0 0 2ZM23 11H7a1 1 0 0 0 0 2h16a1 1 0 0 0 0-2ZM23 18H7a1 1 0 0 0 0 2h16a1 1 0 0 0 0-2Z" fill="#ffffff" data-original="#000000"></path><circle cx="2" cy="5" r="2" fill="#ffffff" data-original="#000000"></circle><circle cx="2" cy="12" r="2" fill="#ffffff" data-original="#000000"></circle><circle cx="2" cy="19" r="2" fill="#ffffff" data-original="#000000"></circle></g></svg>